<svg data-v-0dd9719b="" version="1.0" xmlns="http://www.w3.org/2000/svg" xmlns:xlink="http://www.w3.org/1999/xlink" width="100%" height="100%" viewBox="0 0 340.000000 250.000000" preserveAspectRatio="xMidYMid meet" color-interpolation-filters="sRGB" style="margin: auto;"> <rect data-v-0dd9719b="" x="0" y="0" width="100%" height="100%" fill="#fff" fill-opacity="1" class="background"></rect> <rect data-v-0dd9719b="" x="0" y="0" width="100%" height="100%" fill="url(#watermark)" fill-opacity="1" class="watermarklayer"></rect> <g data-v-0dd9719b="" fill="#333" class="icon-text-wrapper icon-svg-group iconsvg" transform="translate(89.7800064086914,71.56482315063477)"><g class="iconsvg-imagesvg" transform="translate(50.219993591308594,0)"><g><rect fill="#333" fill-opacity="0" stroke-width="2" x="0" y="0" width="60" height="61.87034038998938" class="image-rect"></rect> <svg x="0" y="0" width="60" height="61.87034038998938" filtersec="colorsb5359989330" class="image-svg-svg primary" style="overflow: visible;"><svg xmlns="http://www.w3.org/2000/svg" viewBox="0 0 84.3703842163086 87"><title>资源 40</title><path d="M82.23 30.14L24.17 61.56V0H0v87h32.43c30.41 0 51.94-18.12 51.94-43.59a41.4 41.4 0 0 0-2.14-13.27z" fill="#0800b1"></path><path d="M0 0h32.43c30.41 0 51.94 18.12 51.94 43.58a41.41 41.41 0 0 1-2.14 13.32L0 12.4z" fill="#0d00df"></path></svg></svg> <!----></g></g> <g transform="translate(0,68.87034225463867)"><g data-gra="path-name" fill-rule="" class="tp-name iconsvg-namesvg"><g transform="scale(1)"><g><path d="M16.23 6.33L16.23 6.33 5.67 6.33 5.67-27.23 4.07-27.23 4.07-31.57 16.23-31.57Q19.3-31.57 22.25-30.5 25.19-29.43 27.5-27.45L27.5-27.45Q28.55-26.57 29.62-25.27 30.69-23.98 31.57-22.16 32.45-20.35 33.03-17.98 33.6-15.62 33.6-12.6L33.6-12.6Q33.6-9.63 33.03-7.26 32.45-4.9 31.57-3.08 30.69-1.26 29.62 0.06 28.55 1.38 27.5 2.25L27.5 2.25Q25.19 4.18 22.25 5.25 19.3 6.33 16.23 6.33ZM9.96-27.23L9.96 2.04 16.23 2.04Q18.04 2.04 20.3 1.38 22.55 0.71 24.56-0.94 26.57-2.58 27.91-5.42 29.26-8.25 29.26-12.6L29.26-12.6Q29.26-16.94 27.91-19.77 26.57-22.61 24.56-24.25 22.55-25.91 20.3-26.57 18.04-27.23 16.23-27.23L16.23-27.23 9.96-27.23ZM60.28-9.85L60.28 5.72 55.77 5.72 55.77 3.85Q55.44 4.01 55.17 4.24L55.17 4.24Q53.68 5.12 51.65 5.72L51.65 5.72Q50.38 6.16 49.25 6.3 48.13 6.43 47.19 6.43L47.19 6.43Q45.93 6.43 44.96 6.21 44 6 43.29 5.72L43.29 5.72Q41.75 5.12 40.67 4.01 39.6 2.92 39.11 1.54L39.11 1.54Q38.83 0.88 38.72-0.28 38.61-1.43 39.13-2.83 39.66-4.24 41.11-5.72 42.57-7.21 45.48-8.53L45.48-8.53Q47.03-9.24 48.9-9.79 50.77-10.34 52.41-10.72 54.06-11.11 55.17-11.33L55.17-11.33Q55.44-11.38 55.66-11.38L55.66-11.38Q55.61-11.61 55.55-11.82L55.55-11.82Q55.39-12.87 54.62-13.64L54.62-13.64Q53.24-14.9 50.11-14.74L50.11-14.74Q48.4-14.63 46.91-14.05 45.43-13.47 44.33-12.81 43.23-12.15 42.57-11.61L42.57-11.61 41.91-11.05 38.77-14.3Q38.83-14.36 39.68-15.1 40.54-15.84 42.02-16.72 43.51-17.6 45.51-18.37 47.52-19.14 49.89-19.25L49.89-19.25Q55-19.52 57.7-16.89L57.7-16.89Q58.69-15.95 59.21-14.9 59.73-13.86 59.98-12.87 60.23-11.88 60.25-11.08 60.28-10.29 60.28-9.85L60.28-9.85ZM53.52-6.43L53.52-6.43Q52.03-6.11 50.35-5.61 48.68-5.12 47.36-4.51L47.36-4.51Q46.8-4.24 45.98-3.79 45.16-3.35 44.47-2.75 43.78-2.15 43.4-1.43 43.01-0.71 43.29 0.06L43.29 0.06Q43.4 0.39 43.84 0.85 44.28 1.32 45.13 1.65 45.98 1.98 47.27 2.01 48.56 2.04 50.38 1.49L50.38 1.49Q51.81 1.04 52.88 0.44 53.95-0.17 54.62-0.77L54.62-0.77Q55.28-1.32 55.77-1.93L55.77-1.93 55.77-6.88Q54.78-6.71 53.52-6.43ZM68.53-17.38L68.53 5.55 64.02 5.55 64.02-17.38 68.53-17.38ZM68.53-26.34L68.53-21.45 64.02-21.45 64.02-26.34 68.53-26.34ZM95.26-18.59L95.26-18.59Q97.19-18.59 98.84-17.88 100.49-17.16 101.67-15.89 102.85-14.63 103.54-12.93 104.23-11.22 104.23-9.19L104.23-9.19 104.23 5.39 99.55 5.39 99.55-9.19Q99.55-11.22 98.34-12.54 97.13-13.86 95.26-13.86L95.26-13.86Q93.45-13.86 92.24-12.54 91.03-11.22 91.03-9.19L91.03-9.19 91.03 5.39 86.35 5.39 86.35-9.19Q86.35-11.22 85.14-12.54 83.93-13.86 82.12-13.86L82.12-13.86Q80.25-13.86 79.06-12.54 77.88-11.22 77.88-9.19L77.88-9.19 77.88 5.39 73.15 5.39 73.15-13.7 72.33-13.7 72.33-18.43 77.88-18.43 77.88-17.55Q79.81-18.59 82.12-18.59L82.12-18.59Q84.09-18.59 85.77-17.82 87.45-17.05 88.72-15.68L88.72-15.68Q89.93-17.05 91.6-17.82 93.28-18.59 95.26-18.59ZM129.63-9.85L129.63 5.72 125.13 5.72 125.13 3.85Q124.8 4.01 124.52 4.24L124.52 4.24Q123.04 5.12 121 5.72L121 5.72Q119.74 6.16 118.61 6.3 117.48 6.43 116.55 6.43L116.55 6.43Q115.28 6.43 114.32 6.21 113.36 6 112.64 5.72L112.64 5.72Q111.1 5.12 110.03 4.01 108.96 2.92 108.46 1.54L108.46 1.54Q108.19 0.88 108.08-0.28 107.97-1.43 108.49-2.83 109.01-4.24 110.47-5.72 111.93-7.21 114.84-8.53L114.84-8.53Q116.38-9.24 118.25-9.79 120.12-10.34 121.77-10.72 123.42-11.11 124.52-11.33L124.52-11.33Q124.8-11.38 125.02-11.38L125.02-11.38Q124.96-11.61 124.91-11.82L124.91-11.82Q124.74-12.87 123.97-13.64L123.97-13.64Q122.59-14.9 119.46-14.74L119.46-14.74Q117.76-14.63 116.27-14.05 114.79-13.47 113.69-12.81 112.59-12.15 111.93-11.61L111.93-11.61 111.27-11.05 108.13-14.3Q108.19-14.36 109.04-15.1 109.89-15.84 111.38-16.72 112.86-17.6 114.87-18.37 116.88-19.14 119.24-19.25L119.24-19.25Q124.36-19.52 127.05-16.89L127.05-16.89Q128.04-15.95 128.56-14.9 129.09-13.86 129.33-12.87 129.58-11.88 129.61-11.08 129.63-10.29 129.63-9.85L129.63-9.85ZM122.87-6.43L122.87-6.43Q121.39-6.11 119.71-5.61 118.03-5.12 116.71-4.51L116.71-4.51Q116.16-4.24 115.34-3.79 114.51-3.35 113.82-2.75 113.14-2.15 112.75-1.43 112.37-0.71 112.64 0.06L112.64 0.06Q112.75 0.39 113.19 0.85 113.63 1.32 114.48 1.65 115.34 1.98 116.63 2.01 117.92 2.04 119.74 1.49L119.74 1.49Q121.17 1.04 122.24 0.44 123.31-0.17 123.97-0.77L123.97-0.77Q124.63-1.32 125.13-1.93L125.13-1.93 125.13-6.88Q124.14-6.71 122.87-6.43ZM156.26-8.3L156.26 5.28 151.58 5.28 151.58-8.3Q151.58-9.46 151.09-10.48 150.59-11.49 149.77-12.27 148.94-13.04 147.87-13.5 146.8-13.97 145.59-13.97L145.59-13.97Q144.43-13.97 143.36-13.53 142.29-13.09 141.46-12.35 140.64-11.61 140.11-10.62 139.59-9.63 139.54-8.53L139.54-8.53 139.54 5.28 134.86 5.28 134.86-13.8 133.21-13.8 133.21-18.48 139.54-18.48 139.54-16.83Q140.86-17.71 142.4-18.21 143.94-18.7 145.59-18.7L145.59-18.7Q147.73-18.7 149.68-17.88 151.64-17.05 153.09-15.62 154.55-14.19 155.4-12.29 156.26-10.39 156.26-8.3L156.26-8.3ZM164.51-17.38L164.51 5.55 160 5.55 160-17.38 164.51-17.38ZM164.51-26.34L164.51-21.45 160-21.45 160-26.34 164.51-26.34Z" transform="translate(-4.070000171661377, 31.56999969482422)"></path></g> <!----> <!----> <!----> <!----> <!----> <!----> <!----></g></g> <!----></g></g><defs v-gra="od"></defs></svg>